<svg xmlns="http://www.w3.org/2000/svg" xmlns:xlink="http://www.w3.org/1999/xlink" viewBox="0 0 328.83 285.19"><defs><style>.cls-1{fill:url(#linear-gradient);}</style><linearGradient id="linear-gradient" x1="181.8" y1="154.7" x2="327.94" y2="353.04" gradientUnits="userSpaceOnUse"><stop offset="0" stop-color="#00faff"/><stop offset="1" stop-color="#ea23fb"/></linearGradient></defs><g id="Layer_1" data-name="Layer 1"><path class="cls-1" d="M450,326.47l-28.07-48.82-28.32-48.82-14.16-24.41-94-163.08-36.87,64,0,.07h-.07l-5.37,9.27,0,.06-51.69,89.72-14.16,24.41-13.91,24.41-14.16,24.41-28.08,48.82H205.4l14.15-24.41,14.13-24.35h0l13.92-24.41h0l0-.06,14.12-24.35H282.5l-28.28,48.76-14.16,24.41-13.91,24.41H365.4l0,.07h28.07l0-.07ZM163.41,302.06l14.12-24.35h0l13.92-24.41h0l0-.06,14.12-24.35h0l13.91-24.41h0l0-.06,37.77-65.31,8.76,15.08L280,178.6l14.9,25.88h-19l0-.06H247.63l-13.92,24.41-14.16,24.41L205.4,277.65l-14.16,24.41Zm119.13-24.41,27.27-47.48L323.2,253.3l13.92,24.41h28.32L351.28,253.3l-14.16-24.41h.1L308.31,178.6,280,129.78l-8.75-15.08.07-.12,14.16-24.41,65.91,114.25,0,.06h0l14.16,24.41h0l14.13,24.35,0,.06h0l13.91,24.41h0l14.12,24.35H268.38Z" transform="translate(-121.17 -41.34)"/></g></svg>