<?xml version="1.0" encoding="utf-8"?>
<!-- Generator: Adobe Illustrator 25.2.0, SVG Export Plug-In . SVG Version: 6.00 Build 0)  -->
<svg version="1.1" id="Layer_1" xmlns="http://www.w3.org/2000/svg" xmlns:xlink="http://www.w3.org/1999/xlink" x="0px" y="0px"
	 viewBox="0 0 48 48" style="enable-background:new 0 0 48 48;" xml:space="preserve">
<style type="text/css">
	.st0{fill:url(#SVGID_1_);}
</style>
<linearGradient id="SVGID_1_" gradientUnits="userSpaceOnUse" x1="9.7325" y1="22.7979" x2="29.8238" y2="-4.4682" gradientTransform="matrix(1 0 0 -1 0 41.78)">
	<stop  offset="0" style="stop-color:#00FAFF"/>
	<stop  offset="1" style="stop-color:#EA23FB"/>
</linearGradient>
<path class="st0" d="M46.6,42.6l-3.9-6.7l-3.9-6.7l-2-3.3L24,3.4l-5.1,8.8l0,0l0,0l-0.7,1.3l0,0l-7.1,12.3l-1.9,3.4l-1.9,3.4
	l-1.9,3.4l-3.9,6.7H13l1.9-3.4l1.9-3.3l0,0l1.9-3.4l0,0l0,0l1.9-3.3h2.9l-3.9,6.7l-1.9,3.4l-1.9,3.4H35l0,0h3.9l0,0H46.6z M7.2,39.2
	l1.9-3.3l0,0l1.9-3.4l0,0l0,0l1.9-3.3l0,0l1.9-3.4l0,0l0,0l5.2-9l1.2,2.1l1.9,3.4l2,3.6h-2.6l0,0h-3.9l-1.9,3.4l-1.9,3.4L13,35.9
	L11,39.2H7.2z M23.6,35.9l3.7-6.5l1.8,3.2l1.9,3.4H35L33,32.5l-1.9-3.4l0,0l-4-6.9l-3.9-6.7L22,13.5v0l2-3.3l9.1,15.7l0,0l0,0
	l1.9,3.4l0,0l1.9,3.3l0,0l0,0l1.9,3.4l0,0l1.9,3.3H21.6L23.6,35.9z"/>
</svg>
