<?xml version="1.0" encoding="utf-8"?>
<!-- Generator: Adobe Illustrator 25.2.0, SVG Export Plug-In . SVG Version: 6.00 Build 0)  -->
<svg version="1.1" id="Layer_1" xmlns="http://www.w3.org/2000/svg" xmlns:xlink="http://www.w3.org/1999/xlink" x="0px" y="0px"
	 viewBox="0 0 224.6 40" style="enable-background:new 0 0 224.6 40;" xml:space="preserve">
<style type="text/css">
	.st0{fill:#FFFFFF;}
	.st1{fill:url(#SVGID_1_);}
</style>
<g>
	<path class="st0" d="M64.8,28.4h-7.4l-1.1,2.4h-3.6l8.4-17.9l8.4,17.9h-3.6L64.8,28.4z M63.4,25.2l-2.3-5l-2.3,5H63.4z"/>
	<path class="st0" d="M88.2,30.8h-4.2l-7.6-9.4v9.4h-3.3V13.5h8.5c3.1,0,5.6,2.4,5.6,5.3c0,2.6-2,4.8-4.6,5.3L88.2,30.8z M76.5,21.4
		h4.9c1.5,0,2.7-1.1,2.7-2.6c0-1.4-1.2-2.6-2.7-2.6h-4.9V21.4z"/>
	<path class="st0" d="M109.3,26.6c-1.6,2.5-4.6,4.2-8,4.2c-5.1,0-9.4-4-9.4-9c0-4.9,4.2-8.9,9.4-8.9c3.4,0,6.3,1.7,8,4.2l-2.6,1.6
		c-1.1-1.7-3.1-2.8-5.3-2.8c-3.4,0-6.2,2.7-6.2,6s2.8,6,6.2,6c2.2,0,4.2-1.1,5.3-2.8L109.3,26.6z"/>
	<path class="st0" d="M128.5,13.5v17.3h-3.3v-7.7h-9v7.7H113V13.5h3.3v7h9v-7H128.5z"/>
	<path class="st0" d="M135.5,30.8h-3.3V13.5h3.3V30.8z"/>
	<path class="st0" d="M155,13.2v17.9l-12.5-11.4v10.8h-3.3V12.6L151.7,24V13.2H155z"/>
	<path class="st0" d="M174.4,16.6h-6.3v14.2h-3.3V16.6h-6.2v-3h15.7V16.6z"/>
	<path class="st0" d="M181.4,16.2v4.3h8.1v2.6h-8.1v4.9h8.5v2.7h-11.8V13.5H190v2.7H181.4z"/>
	<path class="st0" d="M206.7,28v2.8h-13V13.5h3.3V28H206.7z"/>
	<path class="st0" d="M223.4,28v2.8h-13V13.5h3.3V28H223.4z"/>
</g>
<linearGradient id="SVGID_1_" gradientUnits="userSpaceOnUse" x1="8.3636" y1="17.7727" x2="28.7722" y2="-9.924" gradientTransform="matrix(1 0 0 -1 0 33.78)">
	<stop  offset="0" style="stop-color:#00FAFF"/>
	<stop  offset="1" style="stop-color:#EA23FB"/>
</linearGradient>
<path class="st1" d="M45.8,40l-3.9-6.8l-4-6.8l-2-3.4L22.8,0.2l-5.2,8.9l0,0l0,0l-0.8,1.3l0,0L9.7,22.9l-2,3.4l-1.9,3.4l-2,3.4
	L-0.1,40h11.8l2-3.4l2-3.4l0,0l1.9-3.4l0,0l0,0l2-3.4h2.9l-4,6.8l-2,3.4L14.6,40H34l0,0h3.9l0,0H45.8z M5.8,36.6l2-3.4l0,0l1.9-3.4
	l0,0l0,0l2-3.4l0,0l1.9-3.4l0,0l0,0l5.3-9.1l1.2,2.1l1.9,3.4l2.1,3.6h-2.6l0,0h-4l-1.9,3.4l-2,3.4l-2,3.4l-2,3.4H5.8z M22.4,33.2
	l3.8-6.6l1.9,3.2l1.9,3.4h4l-2-3.4l-2-3.4l0,0l-4-7l-4-6.8l-1.2-2.1v0l2-3.4l9.2,16l0,0l0,0l2,3.4l0,0l2,3.4l0,0l0,0l1.9,3.4l0,0
	l2,3.4H20.5L22.4,33.2z"/>
</svg>
