<?xml version="1.0" encoding="utf-8"?>
<!-- Generator: Adobe Illustrator 25.2.0, SVG Export Plug-In . SVG Version: 6.00 Build 0)  -->
<svg version="1.1" id="Layer_1" xmlns="http://www.w3.org/2000/svg" xmlns:xlink="http://www.w3.org/1999/xlink" x="0px" y="0px"
	 viewBox="0 0 48 48" style="enable-background:new 0 0 48 48;" xml:space="preserve">
<style type="text/css">
	.st0{fill:#FFFFFF;}
</style>
<path class="st0" d="M46.6,41.4l-3.9-6.7L38.8,28l-2-3.3L24,2.2L18.9,11l0,0l0,0l-0.7,1.3l0,0l-7.1,12.3L9.1,28l-1.9,3.4l-1.9,3.3
	l-3.9,6.7H13l1.9-3.4l1.9-3.3l0,0l1.9-3.4l0,0l0,0l1.9-3.3h2.9l-3.9,6.7L17.7,38l-1.9,3.4H35l0,0h3.9l0,0H46.6z M7.2,38l1.9-3.3l0,0
	l1.9-3.4l0,0l0,0L13,28l0,0l1.9-3.4l0,0l0,0l5.2-9l1.2,2.1l1.9,3.4l2,3.6h-2.6l0,0h-3.9L16.9,28l-1.9,3.4L13,34.7L11,38H7.2z
	 M23.6,34.7l3.7-6.5l1.8,3.2l1.9,3.4H35L33,31.3L31.1,28l0,0l-4-6.9l-3.9-6.7L22,12.3v0l2-3.3L33,24.6l0,0l0,0L35,28l0,0l1.9,3.3
	l0,0l0,0l1.9,3.4l0,0l1.9,3.3H21.6L23.6,34.7z"/>
</svg>
